<svg width="48" height="48" viewBox="0 0 48 48" fill="none" xmlns="http://www.w3.org/2000/svg">
<path d="M0 0H48V48H0V0Z" fill="#0B54ED"/>
<path fill-rule="evenodd" clip-rule="evenodd" d="M11 24C11 31.1797 16.8203 37 24 37C31.1797 37 37 31.1797 37 24C37 16.8203 31.1797 11 24 11C16.8203 11 11 16.8203 11 24ZM20.6778 19.8111C20.1991 19.8111 19.8111 20.1991 19.8111 20.6778V27.3222C19.8111 27.8009 20.1991 28.1889 20.6778 28.1889H27.3222C27.8009 28.1889 28.1889 27.8009 28.1889 27.3222V20.6778C28.1889 20.1991 27.8009 19.8111 27.3222 19.8111H20.6778Z" fill="white"/>
</svg>
